<svg xmlns="http://www.w3.org/2000/svg" xmlns:xlink="http://www.w3.org/1999/xlink" width="100" height="106" viewBox="0 0 100 106">
    <defs>
        <!-- EU star shape -->
        <g id="s-d">
            <g id="s-b">
                <path id="s-a" d="m0-1-.3 1 .5.1z" />
                <use xlink:href="#s-a" transform="scale(-1 1)" />
            </g>
            <g id="s-c">
                <use xlink:href="#s-b" transform="rotate(72)" />
                <use xlink:href="#s-b" transform="rotate(144)" />
            </g>
            <use xlink:href="#s-c" transform="scale(-1 1)" />
        </g>

        <!-- US star: explicit 5-point path, no marker, centered at origin, R=25 r=10 -->
        <path id="us-star" fill="white" d="M0,-25 L5.88,-8.09 L23.78,-7.73 L9.51,3.09 L14.69,20.23 L0,10 L-14.69,20.23 L-9.51,3.09 L-23.78,-7.73 L-5.88,-8.09 Z" />

        <clipPath id="c-eu"><circle cx="36" cy="36" r="31" /></clipPath>
        <clipPath id="c-us"><circle cx="64" cy="64" r="31" /></clipPath>
        <filter id="sh" x="-30%" y="-30%" width="180%" height="180%">
            <feDropShadow dx="0" dy="1" stdDeviation="3" flood-color="#000" flood-opacity="0.28" />
        </filter>
    </defs>

    <!-- ── EU FLAG ── -->
    <circle cx="36" cy="36" r="32" fill="white" filter="url(#sh)" />
    <g clip-path="url(#c-eu)">
        <g transform="translate(36,36) scale(0.1292) translate(-320,-240)">
            <path fill="#039" d="M0 0h640v480H0z" />
            <g fill="#fc0" transform="translate(320 242.3) scale(23.7037)">
                <use xlink:href="#s-d" y="-6" />
                <use xlink:href="#s-d" y="6" />
                <g id="s-e">
                    <use xlink:href="#s-d" x="-6" />
                    <use xlink:href="#s-d" transform="rotate(-144 -2.3 -2.1)" />
                    <use xlink:href="#s-d" transform="rotate(144 -2.1 -2.3)" />
                    <use xlink:href="#s-d" transform="rotate(72 -4.7 -2)" />
                    <use xlink:href="#s-d" transform="rotate(72 -5 .5)" />
                </g>
                <use xlink:href="#s-e" transform="scale(-1 1)" />
            </g>
        </g>
    </g>
    <circle cx="36" cy="36" r="31" fill="none" stroke="white" stroke-width="2" />

    <!-- ── US FLAG ── -->
    <circle cx="64" cy="64" r="32" fill="white" filter="url(#sh)" />
    <g clip-path="url(#c-us)">
        <g transform="translate(64,64) scale(0.1292) translate(-320,-240)">
            <!-- Stripes -->
            <path fill="#bd3d44" d="M0 0h640v480H0" />
            <path stroke="#fff" stroke-width="37" d="M0 55.3h640M0 129h640M0 203h640M0 277h640M0 351h640M0 425h640" />
            <!-- Canton -->
            <path fill="#192f5d" d="M0 0h364.8v258.5H0" />
            <!-- 3×3 grid of explicit white stars, no markers -->
            <use xlink:href="#us-star" transform="translate(61,44)" />
            <use xlink:href="#us-star" transform="translate(183,44)" />
            <use xlink:href="#us-star" transform="translate(305,44)" />
            <use xlink:href="#us-star" transform="translate(61,130)" />
            <use xlink:href="#us-star" transform="translate(183,130)" />
            <use xlink:href="#us-star" transform="translate(305,130)" />
            <use xlink:href="#us-star" transform="translate(61,216)" />
            <use xlink:href="#us-star" transform="translate(183,216)" />
            <use xlink:href="#us-star" transform="translate(305,216)" />
        </g>
    </g>
    <circle cx="64" cy="64" r="31" fill="none" stroke="white" stroke-width="2" />
</svg>
